<?xml version="1.0" encoding="utf-8"?>
<!-- Generator: Adobe Illustrator 26.1.0, SVG Export Plug-In . SVG Version: 6.00 Build 0)  -->
<svg version="1.1" id="Layer_1" xmlns="http://www.w3.org/2000/svg" xmlns:xlink="http://www.w3.org/1999/xlink" x="0px" y="0px"
	 viewBox="0 0 595.28 841.89" style="enable-background:new 0 0 595.28 841.89;" xml:space="preserve">
<style type="text/css">
	.st0{fill:#A8A8A8;}
	.st1{fill:#B3B3B3;}
	.st2{fill:#BBBBBB;}
	.st3{fill:#C5C5C5;}
	.st4{fill:#D7D7D7;}
</style>
<g>
	<path class="st0" d="M263,309.08c-1.57,2.28-2.28,4.67-3.22,6.94c-3.19,7.73-6.28,15.5-9.43,23.25c-0.59,1.46-1.33,2.57-3.29,2.53
		c-1.88-0.03-2.73-0.95-3.36-2.47c-3.8-9.21-7.61-18.41-11.41-27.63c-0.25-0.6-0.37-1.43-1.12-1.33c-0.81,0.1-0.66,0.99-0.66,1.59
		c-0.01,2.8,0.01,5.6,0.04,8.4c0.08,6.22,0.15,12.45,0.28,18.67c0.06,2.75-1.72,2.7-3.7,2.75c-2.13,0.06-3.03-0.7-3.02-2.91
		c0.06-10.8,0.03-21.6,0.02-32.39c0-1.84,0.03-3.68-0.13-5.51c-0.15-1.72,0.66-2.36,2.2-2.38c2.08-0.03,4.16,0.03,6.24-0.02
		c1.74-0.04,2.37,1.25,2.87,2.47c2.05,5.02,4,10.08,6,15.12c1.67,4.22,3.35,8.43,5.06,12.63c0.19,0.46,0.14,1.31,0.88,1.25
		c0.72-0.05,0.96-0.8,1.14-1.4c1.24-4.31,3.31-8.29,4.9-12.46c1.93-5.06,4.01-10.06,6.04-15.08c0.7-1.72,1.86-2.6,3.86-2.56
		c8.72,0.17,7.44-1.09,7.49,7.26c0.06,10.8,0.03,21.6,0,32.39c0,1.21,0.5,2.87-1.12,3.32c-1.75,0.49-3.69,0.62-5.41-0.14
		c-1-0.44-0.67-1.7-0.67-2.63c-0.01-8.88,0-17.76-0.02-26.64C263.45,311.17,263.7,310.19,263,309.08z"/>
	<path class="st0" d="M441.61,329.27c0,3.28-0.07,6.56,0.03,9.83c0.06,1.98-0.76,2.82-2.7,2.64c-0.08-0.01-0.16,0-0.24,0
		c-4.3,0.07-4.3,0.07-4.3-4.12c0-5.99-0.05-11.99,0.03-17.98c0.03-1.97-0.49-3.08-2.68-2.87c-1.82,0.18-2.62-0.67-2.61-2.52
		c0-1.83,0.16-3.6,2.46-3.58c2.46,0.02,2.99-1.18,2.81-3.29c-0.59-7.32,5.12-12.65,12.75-11.75c2.19,0.26,2.67,0.97,2.6,3.89
		c-0.05,1.98-0.93,2.44-2.77,2.12c-2.09-0.36-3.88,0.51-4.86,2.34c-0.97,1.82-0.68,3.89-0.22,5.84c0.16,0.7,0.99,0.73,1.63,0.73
		c2.32,0.02,4.64-0.01,6.95,0.03c1.55,0.03,2.18-0.73,2.1-2.21c-0.02-0.32,0-0.64,0-0.96c0.03-3.14,2.69-5.48,5.82-5.18
		c1.08,0.11,1.27,0.87,1.33,1.67c0.08,1.11,0.06,2.24,0.07,3.35c0.02,3.2,0.1,3.29,3.42,3.32c0.4,0,0.8,0.01,1.2,0.01
		c2.08-0.02,3.07,0.99,3.07,3.08c0,2.07-0.91,3.17-3.03,3.11c-5.2-0.15-4.64-0.01-4.66,4.94c-0.01,3.28-0.05,6.55,0.02,9.83
		c0.08,3.71,1.23,4.82,4.93,4.88c1.31,0.02,2.66-0.11,2.73,1.81c0.07,1.78-0.31,3.36-2.38,3.46c-1.71,0.09-3.26,0.85-5.15,0.34
		c-5.15-1.37-7.3-3.78-7.36-9.2c-0.04-4.48-0.07-8.95,0.02-13.43c0.04-1.97-0.68-2.76-2.66-2.66c-2.07,0.11-4.16,0.06-6.23,0.02
		c-1.54-0.03-2.15,0.68-2.13,2.18C441.64,322.4,441.62,325.83,441.61,329.27C441.61,329.27,441.61,329.27,441.61,329.27z"/>
	<path class="st0" d="M412.72,310.48c10.8-0.83,15.56,6.82,15.84,15.28c0.32,9.69-6.41,16.63-15.73,16.85
		c-9.32,0.22-16.7-6.61-16.19-15.93C397.08,318.64,400.03,310.02,412.72,310.48z M404.63,325.61c0,1.78-0.06,2.98,0.01,4.18
		c0.18,3.18,3.04,6.18,6.23,6.61c4.55,0.62,8.11-1.06,9.4-4.34c1.43-3.65,1.44-7.26,0.03-10.92c-1.26-3.25-3.84-5.37-7.24-5.27
		c-3.67,0.11-6.72,1.44-8,4.88C404.38,322.55,404.75,324.38,404.63,325.61z"/>
	<path class="st0" d="M369.59,326.22c-1.06,9.13-4.76,16.2-16.56,15.99c-11.14-0.2-15.43-7.23-15.31-16.28
		c0.11-8.12,4.32-15.87,17.31-15.63C364.58,310.49,369.38,317.57,369.59,326.22z M353.68,336.44c4.34,0.01,6.4-1.7,7.9-5.8
		c1.09-2.97,0.73-5.7-0.06-8.62c-0.8-2.97-3.1-5.54-6.3-6.08c-3.16-0.53-5.76,0.65-7.84,3.04c-2.58,2.97-2.1,6.5-1.83,9.98
		C345.95,333.76,348.85,336.42,353.68,336.44z"/>
	<path class="st0" d="M385.07,310.51c0.72,0,1.44-0.01,2.16,0c4.05,0.09,4.68,0.82,4.49,4.85c-0.07,1.47-0.44,2.05-2.01,1.49
		c-1.71-0.61-3.43-1.38-5.33-1.03c-1.58,0.29-3.26,0.52-3.68,2.44c-0.42,1.93,0.57,3.2,2.24,4.04c2.14,1.07,4.34,2.03,6.39,3.26
		c3.32,2,4.91,5.63,4.15,8.96c-0.86,3.73-4.55,6.68-8.24,7.33c-2.88,0.51-5.63,0.15-8.44-0.1c-2.97-0.26-4.79-3.85-3.24-6.42
		c0.55-0.92,1.22-0.46,1.86-0.16c2.29,1.1,4.69,1.48,7.21,1.28c1.74-0.14,3.19-0.82,3.64-2.56c0.46-1.8-0.77-2.74-2.27-3.44
		c-2.23-1.04-4.5-2.05-6.62-3.3c-3.62-2.15-4.91-5.73-3.88-10.18c0.68-2.95,4.86-6.24,8.23-6.43c1.11-0.06,2.24-0.01,3.35-0.01
		C385.07,310.53,385.07,310.52,385.07,310.51z"/>
	<path class="st0" d="M306.97,310.51c0.35,0,1.07-0.01,1.79,0c4.4,0.09,5.12,0.93,4.74,5.35c-0.12,1.46-0.51,1.93-2.12,1.38
		c-2.41-0.82-4.67-1.89-7.57-0.79c-5.51,2.08-6.68,6.05-6.4,10.76c0.45,7.66,6.61,11.24,13.67,8.04c2-0.91,2.37-0.21,2.43,1.59
		c0.13,4-0.5,4.62-4.56,4.97c-2.65,0.23-5.13,0.84-7.94,0.08c-5.63-1.51-8.94-4.95-10.53-10.32c-1.08-3.66-1.18-7.21,0.32-10.93
		C293.32,314.37,298.35,309.8,306.97,310.51z"/>
	<path class="st0" d="M319.23,326.22c0-4.08,0.03-8.15-0.02-12.23c-0.02-1.81,0.39-3.12,2.49-3.38c3.3-0.42,4.11-0.07,4.8,2.42
		c0.43,1.56,1.1,0.99,1.76,0.22c1.8-2.11,4.06-2.99,6.81-2.71c1.12,0.12,2.2,0.41,2.25,1.69c0.07,1.63,0.66,3.38-0.5,4.86
		c-0.48,0.61-1.16,0.11-1.77-0.04c-3.47-0.87-6.59,0.95-7.65,4.39c-0.64,2.08-0.98,4.18-0.94,6.37c0.06,3.28,0.01,6.55,0.01,9.83
		c0,3.89-1.93,5.22-5.76,4c-1.37-0.44-1.47-1.56-1.47-2.7C319.23,334.7,319.24,330.46,319.23,326.22
		C319.24,326.22,319.23,326.22,319.23,326.22z"/>
	<path class="st0" d="M284.65,326.36c0,4.24-0.06,8.47,0.03,12.71c0.04,1.96-0.7,2.83-2.67,2.67c-0.87-0.07-1.76-0.02-2.64-0.03
		c-1.27-0.01-1.93-0.63-1.93-1.91c0-8.87-0.04-17.75,0.02-26.62c0.02-2.64,2.06-2.58,3.98-2.62c1.99-0.04,3.24,0.6,3.22,2.85
		C284.62,317.73,284.64,322.05,284.65,326.36C284.65,326.36,284.65,326.36,284.65,326.36z"/>
	<path class="st0" d="M280.95,305.77c-2.77-0.03-3.63-0.95-3.6-3.84c0.03-2.32,1.81-4.27,3.91-4.27c2.01,0,4.26,2.28,4.29,4.36
		C285.6,304.18,283.61,305.8,280.95,305.77z"/>
</g>
<g>
	<rect x="129.32" y="283.62" class="st1" width="34.96" height="34.96"/>
	<rect x="129.32" y="322.54" class="st2" width="34.96" height="34.96"/>
	<rect x="168.11" y="283.62" class="st3" width="34.96" height="34.96"/>
	<rect x="168.11" y="322.54" class="st4" width="34.96" height="34.96"/>
</g>
</svg>
